<svg xmlns="http://www.w3.org/2000/svg" viewBox="0 0 26 13"><mask id="b" width="26" height="13" x="0" y="0"><path fill="url(#a)" d="M0 0h26v13H0z"/></mask><g mask="url(#b)"><circle cx="2" cy=".5" r=".07" fill="#4c4e72fe"/><circle cx="4" cy=".5" r=".07" fill="#4c4e72ac"/><circle cx="5" cy=".5" r=".07" fill="#4c4e7202"/><circle cx="7" cy=".5" r=".07" fill="#4c4e725f"/><circle cx="10" cy=".5" r=".07" fill="#4c4e72fa"/><circle cx="11" cy=".5" r=".07" fill="#4c4e723c"/><circle cx="13" cy=".5" r=".07" fill="#4c4e7251"/><circle cx="15" cy=".5" r=".07" fill="#4c4e72ea"/><circle cx="16" cy=".5" r=".07" fill="#4c4e7200"/><circle cx="17" cy=".5" r=".07" fill="#4c4e7242"/><circle cx="18" cy=".5" r=".07" fill="#4c4e7278"/><circle cx="19" cy=".5" r=".07" fill="#4c4e72c7"/><circle cx="23" cy=".5" r=".07" fill="#4c4e72e5"/><circle cx="24" cy=".5" r=".07" fill="#4c4e7249"/><circle cx="25" cy=".5" r=".07" fill="#4c4e725a"/><circle cx="26" cy=".5" r=".07" fill="#4c4e724e"/><circle cx="28" cy=".5" r=".07" fill="#4c4e7232"/><circle cx="29" cy=".5" r=".07" fill="#4c4e7251"/><circle cx="31" cy=".5" r=".07" fill="#4c4e72b7"/><circle cx="32" cy=".5" r=".07" fill="#4c4e72d3"/><circle cx="33" cy=".5" r=".07" fill="#4c4e72f2"/><circle cx="35" cy=".5" r=".07" fill="#4c4e722f"/><circle cx="36" cy=".5" r=".07" fill="#4c4e72f7"/><circle cx="38" cy=".5" r=".07" fill="#4c4e728c"/><circle cx="40" cy=".5" r=".07" fill="#4c4e72a9"/><circle cx="41" cy=".5" r=".07" fill="#4c4e723e"/><circle cx="42" cy=".5" r=".07" fill="#4c4e72b6"/><circle cx="43" cy=".5" r=".07" fill="#4c4e7257"/><circle cx="44" cy=".5" r=".07" fill="#4c4e72cf"/><circle cx="45" cy=".5" r=".07" fill="#4c4e7263"/><circle cx="48" cy=".5" r=".07" fill="#4c4e720f"/><circle cx="49" cy=".5" r=".07" fill="#4c4e723f"/><circle cx="50" cy=".5" r=".07" fill="#4c4e725c"/><circle cx="51" cy=".5" r=".07" fill="#4c4e721b"/><circle cx="53" cy=".5" r=".07" fill="#4c4e7222"/><circle cx="54" cy=".5" r=".07" fill="#4c4e72e2"/><circle cx="55" cy=".5" r=".07" fill="#4c4e72a9"/><circle cx="57" cy=".5" r=".07" fill="#4c4e7281"/><circle cx="61" cy=".5" r=".07" fill="#4c4e72e1"/><circle cx="62" cy=".5" r=".07" fill="#4c4e72aa"/><circle cx="64" cy=".5" r=".07" fill="#4c4e72d9"/><circle cx="65" cy=".5" r=".07" fill="#4c4e7267"/><circle cx="68" cy=".5" r=".07" fill="#4c4e72cc"/><circle cx="71" cy=".5" r=".07" fill="#4c4e72c8"/><circle cx="72" cy=".5" r=".07" fill="#4c4e7203"/><circle cx="73" cy=".5" r=".07" fill="#4c4e72ca"/><circle cx="74" cy=".5" r=".07" fill="#4c4e728a"/><circle cx="76" cy=".5" r=".07" fill="#4c4e7256"/><circle cx="80" cy=".5" r=".07" fill="#4c4e72a7"/><circle cx="82" cy=".5" r=".07" fill="#4c4e72d3"/><circle cx="83" cy=".5" r=".07" fill="#4c4e72e9"/><circle cx="84" cy=".5" r=".07" fill="#4c4e720d"/><circle cx="85" cy=".5" r=".07" fill="#4c4e721f"/><circle cx="87" cy=".5" r=".07" fill="#4c4e7241"/><circle cx="88" cy=".5" r=".07" fill="#4c4e72f1"/><circle cx="92" cy=".5" r=".07" fill="#4c4e7278"/><circle cx="93" cy=".5" r=".07" fill="#4c4e72a7"/><circle cx="95" cy=".5" r=".07" fill="#4c4e7293"/><circle cx="96" cy=".5" r=".07" fill="#4c4e7208"/><circle cx="97" cy=".5" r=".07" fill="#4c4e7282"/><circle cx="98" cy=".5" r=".07" fill="#4c4e728f"/><circle cx="100" cy=".5" r=".07" fill="#4c4e7259"/><circle cx="1.5" cy="1.5" r=".07" fill="#4c4e722b"/><circle cx="2.5" cy="1.5" r=".07" fill="#4c4e72e2"/><circle cx="3.5" cy="1.5" r=".07" fill="#4c4e7253"/><circle cx="4.5" cy="1.5" r=".07" fill="#4c4e72f7"/><circle cx="6.5" cy="1.5" r=".07" fill="#4c4e724a"/><circle cx="7.5" cy="1.5" r=".07" fill="#4c4e7246"/><circle cx="8.5" cy="1.5" r=".07" fill="#4c4e723a"/><circle cx="9.5" cy="1.5" r=".07" fill="#4c4e7292"/><circle cx="10.5" cy="1.5" r=".07" fill="#4c4e7254"/><circle cx="11.5" cy="1.5" r=".07" fill="#4c4e7288"/><circle cx="13.5" cy="1.5" r=".07" fill="#4c4e72fe"/><circle cx="15.5" cy="1.5" r=".07" fill="#4c4e7248"/><circle cx="16.5" cy="1.5" r=".07" fill="#4c4e7257"/><circle cx="17.5" cy="1.5" r=".07" fill="#4c4e7220"/><circle cx="18.5" cy="1.5" r=".07" fill="#4c4e7221"/><circle cx="19.5" cy="1.5" r=".07" fill="#4c4e72b5"/><circle cx="20.5" cy="1.5" r=".07" fill="#4c4e7267"/><circle cx="23.5" cy="1.5" r=".07" fill="#4c4e7201"/><circle cx="24.5" cy="1.5" r=".07" fill="#4c4e7230"/><circle cx="26.5" cy="1.5" r=".07" fill="#4c4e72d2"/><circle cx="27.5" cy="1.5" r=".07" fill="#4c4e72bc"/><circle cx="31.5" cy="1.5" r=".07" fill="#4c4e7214"/><circle cx="36.5" cy="1.5" r=".07" fill="#4c4e7241"/><circle cx="38.5" cy="1.5" r=".07" fill="#4c4e7257"/><circle cx="39.5" cy="1.5" r=".07" fill="#4c4e724d"/><circle cx="41.5" cy="1.5" r=".07" fill="#4c4e7215"/><circle cx="43.5" cy="1.5" r=".07" fill="#4c4e72cf"/><circle cx="46.5" cy="1.5" r=".07" fill="#4c4e7254"/><circle cx="48.5" cy="1.5" r=".07" fill="#4c4e72a2"/><circle cx="50.5" cy="1.5" r=".07" fill="#4c4e72dc"/><circle cx="53.5" cy="1.5" r=".07" fill="#4c4e7255"/><circle cx="54.5" cy="1.5" r=".07" fill="#4c4e725b"/><circle cx="55.5" cy="1.5" r=".07" fill="#4c4e72f1"/><circle cx="58.5" cy="1.5" r=".07" fill="#4c4e7239"/><circle cx="60.5" cy="1.5" r=".07" fill="#4c4e72d9"/><circle cx="61.5" cy="1.5" r=".07" fill="#4c4e72b4"/><circle cx="63.5" cy="1.5" r=".07" fill="#4c4e7222"/><circle cx="65.5" cy="1.5" r=".07" fill="#4c4e729d"/><circle cx="68.5" cy="1.5" r=".07" fill="#4c4e72a6"/><circle cx="71.5" cy="1.5" r=".07" fill="#4c4e72c7"/><circle cx="72.5" cy="1.5" r=".07" fill="#4c4e72fa"/><circle cx="74.5" cy="1.5" r=".07" fill="#4c4e72e0"/><circle cx="75.5" cy="1.5" r=".07" fill="#4c4e72ab"/><circle cx="76.5" cy="1.5" r=".07" fill="#4c4e72e0"/><circle cx="77.5" cy="1.5" r=".07" fill="#4c4e7239"/><circle cx="78.5" cy="1.5" r=".07" fill="#4c4e724a"/><circle cx="79.5" cy="1.5" r=".07" fill="#4c4e72ae"/><circle cx="80.5" cy="1.5" r=".07" fill="#4c4e7256"/><circle cx="81.5" cy="1.5" r=".07" fill="#4c4e72af"/><circle cx="82.5" cy="1.5" r=".07" fill="#4c4e72af"/><circle cx="83.5" cy="1.5" r=".07" fill="#4c4e7275"/><circle cx="85.5" cy="1.5" r=".07" fill="#4c4e7235"/><circle cx="86.5" cy="1.5" r=".07" fill="#4c4e7245"/><circle cx="87.5" cy="1.5" r=".07" fill="#4c4e72b8"/><circle cx="91.5" cy="1.5" r=".07" fill="#4c4e72f5"/><circle cx="92.5" cy="1.5" r=".07" fill="#4c4e72f8"/><circle cx="95.5" cy="1.5" r=".07" fill="#4c4e72dc"/><circle cx="97.5" cy="1.5" r=".07" fill="#4c4e725a"/><circle cx="99.5" cy="1.5" r=".07" fill="#4c4e7290"/><circle cx="1" cy="2.5" r=".07" fill="#4c4e7297"/><circle cx="2" cy="2.5" r=".07" fill="#4c4e72d4"/><circle cx="3" cy="2.5" r=".07" fill="#4c4e72c2"/><circle cx="4" cy="2.5" r=".07" fill="#4c4e72f3"/><circle cx="5" cy="2.5" r=".07" fill="#4c4e7201"/><circle cx="8" cy="2.5" r=".07" fill="#4c4e72ec"/><circle cx="11" cy="2.5" r=".07" fill="#4c4e7209"/><circle cx="12" cy="2.5" r=".07" fill="#4c4e72f2"/><circle cx="13" cy="2.5" r=".07" fill="#4c4e72b7"/><circle cx="14" cy="2.5" r=".07" fill="#4c4e7217"/><circle cx="15" cy="2.5" r=".07" fill="#4c4e721a"/><circle cx="17" cy="2.5" r=".07" fill="#4c4e7237"/><circle cx="21" cy="2.5" r=".07" fill="#4c4e7219"/><circle cx="23" cy="2.5" r=".07" fill="#4c4e72cd"/><circle cx="25" cy="2.5" r=".07" fill="#4c4e721b"/><circle cx="27" cy="2.5" r=".07" fill="#4c4e7212"/><circle cx="28" cy="2.5" r=".07" fill="#4c4e72a4"/><circle cx="29" cy="2.5" r=".07" fill="#4c4e72c4"/><circle cx="30" cy="2.5" r=".07" fill="#4c4e7280"/><circle cx="32" cy="2.5" r=".07" fill="#4c4e7260"/><circle cx="33" cy="2.5" r=".07" fill="#4c4e729c"/><circle cx="34" cy="2.5" r=".07" fill="#4c4e7297"/><circle cx="36" cy="2.5" r=".07" fill="#4c4e7215"/><circle cx="37" cy="2.5" r=".07" fill="#4c4e727d"/><circle cx="40" cy="2.5" r=".07" fill="#4c4e724b"/><circle cx="41" cy="2.5" r=".07" fill="#4c4e7296"/><circle cx="42" cy="2.5" r=".07" fill="#4c4e72c6"/><circle cx="45" cy="2.5" r=".07" fill="#4c4e72ca"/><circle cx="56" cy="2.5" r=".07" fill="#4c4e72ca"/><circle cx="58" cy="2.5" r=".07" fill="#4c4e72d4"/><circle cx="59" cy="2.5" r=".07" fill="#4c4e72a0"/><circle cx="61" cy="2.5" r=".07" fill="#4c4e72f4"/><circle cx="64" cy="2.5" r=".07" fill="#4c4e7264"/><circle cx="65" cy="2.5" r=".07" fill="#4c4e72c5"/><circle cx="68" cy="2.5" r=".07" fill="#4c4e72d8"/><circle cx="69" cy="2.5" r=".07" fill="#4c4e72b4"/><circle cx="71" cy="2.5" r=".07" fill="#4c4e72e8"/><circle cx="78" cy="2.5" r=".07" fill="#4c4e7295"/><circle cx="81" cy="2.5" r=".07" fill="#4c4e729f"/><circle cx="84" cy="2.5" r=".07" fill="#4c4e72e6"/><circle cx="85" cy="2.5" r=".07" fill="#4c4e7234"/><circle cx="86" cy="2.5" r=".07" fill="#4c4e72dd"/><circle cx="88" cy="2.5" r=".07" fill="#4c4e727d"/><circle cx="90" cy="2.5" r=".07" fill="#4c4e72ec"/><circle cx="91" cy="2.5" r=".07" fill="#4c4e72d4"/><circle cx="93" cy="2.5" r=".07" fill="#4c4e72c2"/><circle cx="94" cy="2.5" r=".07" fill="#4c4e7205"/><circle cx="99" cy="2.5" r=".07" fill="#4c4e7255"/><circle cx="100" cy="2.5" r=".07" fill="#4c4e7214"/><circle cx=".5" cy="3.5" r=".07" fill="#4c4e72ce"/><circle cx="5.5" cy="3.5" r=".07" fill="#4c4e7249"/><circle cx="6.5" cy="3.5" r=".07" fill="#4c4e72ab"/><circle cx="7.5" cy="3.5" r=".07" fill="#4c4e72d5"/><circle cx="8.5" cy="3.5" r=".07" fill="#4c4e728c"/><circle cx="9.5" cy="3.5" r=".07" fill="#4c4e724f"/><circle cx="16.5" cy="3.5" r=".07" fill="#4c4e72ca"/><circle cx="17.5" cy="3.5" r=".07" fill="#4c4e7256"/><circle cx="20.5" cy="3.5" r=".07" fill="#4c4e721a"/><circle cx="21.5" cy="3.5" r=".07" fill="#4c4e7257"/><circle cx="23.5" cy="3.5" r=".07" fill="#4c4e72af"/><circle cx="25.5" cy="3.5" r=".07" fill="#4c4e72bd"/><circle cx="28.5" cy="3.5" r=".07" fill="#4c4e72dd"/><circle cx="31.5" cy="3.5" r=".07" fill="#4c4e7288"/><circle cx="36.5" cy="3.5" r=".07" fill="#4c4e72cf"/><circle cx="37.5" cy="3.5" r=".07" fill="#4c4e72d3"/><circle cx="38.5" cy="3.5" r=".07" fill="#4c4e72b9"/><circle cx="42.5" cy="3.5" r=".07" fill="#4c4e72b4"/><circle cx="44.5" cy="3.5" r=".07" fill="#4c4e726e"/><circle cx="45.5" cy="3.5" r=".07" fill="#4c4e72a8"/><circle cx="47.5" cy="3.5" r=".07" fill="#4c4e7201"/><circle cx="50.5" cy="3.5" r=".07" fill="#4c4e7297"/><circle cx="52.5" cy="3.5" r=".07" fill="#4c4e7271"/><circle cx="53.5" cy="3.5" r=".07" fill="#4c4e725e"/><circle cx="55.5" cy="3.5" r=".07" fill="#4c4e7252"/><circle cx="57.5" cy="3.5" r=".07" fill="#4c4e72d8"/><circle cx="63.5" cy="3.5" r=".07" fill="#4c4e7248"/><circle cx="64.5" cy="3.5" r=".07" fill="#4c4e7253"/><circle cx="65.5" cy="3.5" r=".07" fill="#4c4e72b8"/><circle cx="70.5" cy="3.5" r=".07" fill="#4c4e726e"/><circle cx="72.5" cy="3.5" r=".07" fill="#4c4e7289"/><circle cx="74.5" cy="3.5" r=".07" fill="#4c4e7209"/><circle cx="77.5" cy="3.5" r=".07" fill="#4c4e7278"/><circle cx="79.5" cy="3.5" r=".07" fill="#4c4e72d4"/><circle cx="81.5" cy="3.5" r=".07" fill="#4c4e7296"/><circle cx="82.5" cy="3.5" r=".07" fill="#4c4e7299"/><circle cx="83.5" cy="3.5" r=".07" fill="#4c4e728f"/><circle cx="85.5" cy="3.5" r=".07" fill="#4c4e7202"/><circle cx="86.5" cy="3.5" r=".07" fill="#4c4e72b4"/><circle cx="88.5" cy="3.5" r=".07" fill="#4c4e72bf"/><circle cx="90.5" cy="3.5" r=".07" fill="#4c4e728c"/><circle cx="91.5" cy="3.5" r=".07" fill="#4c4e7224"/><circle cx="93.5" cy="3.5" r=".07" fill="#4c4e72e2"/><circle cx="96.5" cy="3.5" r=".07" fill="#4c4e72a0"/><circle cx="97.5" cy="3.5" r=".07" fill="#4c4e721c"/><circle cx="4" cy="4.5" r=".07" fill="#4c4e723b"/><circle cx="5" cy="4.5" r=".07" fill="#4c4e7296"/><circle cx="8" cy="4.5" r=".07" fill="#4c4e726e"/><circle cx="9" cy="4.5" r=".07" fill="#4c4e723f"/><circle cx="11" cy="4.5" r=".07" fill="#4c4e721c"/><circle cx="14" cy="4.5" r=".07" fill="#4c4e7236"/><circle cx="15" cy="4.5" r=".07" fill="#4c4e72ab"/><circle cx="16" cy="4.5" r=".07" fill="#4c4e72fa"/><circle cx="17" cy="4.5" r=".07" fill="#4c4e72c4"/><circle cx="18" cy="4.5" r=".07" fill="#4c4e725f"/><circle cx="19" cy="4.5" r=".07" fill="#4c4e7278"/><circle cx="23" cy="4.5" r=".07" fill="#4c4e7285"/><circle cx="25" cy="4.5" r=".07" fill="#4c4e7265"/><circle cx="26" cy="4.5" r=".07" fill="#4c4e72d4"/><circle cx="28" cy="4.5" r=".07" fill="#4c4e7280"/><circle cx="30" cy="4.5" r=".07" fill="#4c4e720e"/><circle cx="34" cy="4.5" r=".07" fill="#4c4e7263"/><circle cx="35" cy="4.5" r=".07" fill="#4c4e724a"/><circle cx="38" cy="4.5" r=".07" fill="#4c4e724b"/><circle cx="40" cy="4.5" r=".07" fill="#4c4e72d3"/><circle cx="46" cy="4.5" r=".07" fill="#4c4e72dc"/><circle cx="48" cy="4.5" r=".07" fill="#4c4e72ec"/><circle cx="49" cy="4.5" r=".07" fill="#4c4e7233"/><circle cx="51" cy="4.5" r=".07" fill="#4c4e722f"/><circle cx="52" cy="4.5" r=".07" fill="#4c4e7298"/><circle cx="53" cy="4.5" r=".07" fill="#4c4e7251"/><circle cx="54" cy="4.5" r=".07" fill="#4c4e72a3"/><circle cx="55" cy="4.5" r=".07" fill="#4c4e7215"/><circle cx="57" cy="4.5" r=".07" fill="#4c4e7269"/><circle cx="58" cy="4.5" r=".07" fill="#4c4e7221"/><circle cx="60" cy="4.5" r=".07" fill="#4c4e72c5"/><circle cx="61" cy="4.5" r=".07" fill="#4c4e72e2"/><circle cx="63" cy="4.5" r=".07" fill="#4c4e7220"/><circle cx="66" cy="4.5" r=".07" fill="#4c4e72ea"/><circle cx="72" cy="4.5" r=".07" fill="#4c4e72d4"/><circle cx="73" cy="4.5" r=".07" fill="#4c4e7229"/><circle cx="74" cy="4.5" r=".07" fill="#4c4e7273"/><circle cx="75" cy="4.5" r=".07" fill="#4c4e72a2"/><circle cx="76" cy="4.5" r=".07" fill="#4c4e72bc"/><circle cx="79" cy="4.5" r=".07" fill="#4c4e72a8"/><circle cx="82" cy="4.5" r=".07" fill="#4c4e72c8"/><circle cx="83" cy="4.5" r=".07" fill="#4c4e72da"/><circle cx="85" cy="4.5" r=".07" fill="#4c4e72da"/><circle cx="86" cy="4.5" r=".07" fill="#4c4e72dc"/><circle cx="89" cy="4.5" r=".07" fill="#4c4e72f5"/><circle cx="97" cy="4.5" r=".07" fill="#4c4e728d"/><circle cx="98" cy="4.5" r=".07" fill="#4c4e72ef"/><circle cx="100" cy="4.5" r=".07" fill="#4c4e7230"/><circle cx=".5" cy="5.5" r=".07" fill="#4c4e7204"/><circle cx="1.5" cy="5.5" r=".07" fill="#4c4e72d5"/><circle cx="5.5" cy="5.5" r=".07" fill="#4c4e7296"/><circle cx="6.5" cy="5.5" r=".07" fill="#4c4e72c4"/><circle cx="7.5" cy="5.5" r=".07" fill="#4c4e72cf"/><circle cx="8.5" cy="5.5" r=".07" fill="#4c4e7250"/><circle cx="11.5" cy="5.5" r=".07" fill="#4c4e727c"/><circle cx="12.5" cy="5.5" r=".07" fill="#4c4e728d"/><circle cx="13.5" cy="5.5" r=".07" fill="#4c4e72c6"/><circle cx="14.5" cy="5.5" r=".07" fill="#4c4e7267"/><circle cx="15.5" cy="5.5" r=".07" fill="#4c4e72c2"/><circle cx="17.5" cy="5.5" r=".07" fill="#4c4e7257"/><circle cx="18.5" cy="5.5" r=".07" fill="#4c4e7253"/><circle cx="19.5" cy="5.5" r=".07" fill="#4c4e723c"/><circle cx="21.5" cy="5.5" r=".07" fill="#4c4e721e"/><circle cx="24.5" cy="5.5" r=".07" fill="#4c4e72e8"/><circle cx="26.5" cy="5.5" r=".07" fill="#4c4e723c"/><circle cx="28.5" cy="5.5" r=".07" fill="#4c4e728b"/><circle cx="29.5" cy="5.5" r=".07" fill="#4c4e721c"/><circle cx="31.5" cy="5.5" r=".07" fill="#4c4e72ab"/><circle cx="33.5" cy="5.5" r=".07" fill="#4c4e72c0"/><circle cx="35.5" cy="5.5" r=".07" fill="#4c4e7229"/><circle cx="37.5" cy="5.5" r=".07" fill="#4c4e7298"/><circle cx="38.5" cy="5.5" r=".07" fill="#4c4e723e"/><circle cx="40.5" cy="5.5" r=".07" fill="#4c4e72f0"/><circle cx="41.5" cy="5.5" r=".07" fill="#4c4e721d"/><circle cx="42.5" cy="5.5" r=".07" fill="#4c4e72a5"/><circle cx="43.5" cy="5.5" r=".07" fill="#4c4e72bc"/><circle cx="44.5" cy="5.5" r=".07" fill="#4c4e7234"/><circle cx="46.5" cy="5.5" r=".07" fill="#4c4e721b"/><circle cx="47.5" cy="5.5" r=".07" fill="#4c4e7238"/><circle cx="50.5" cy="5.5" r=".07" fill="#4c4e725e"/><circle cx="52.5" cy="5.5" r=".07" fill="#4c4e7235"/><circle cx="53.5" cy="5.5" r=".07" fill="#4c4e72c5"/><circle cx="61.5" cy="5.5" r=".07" fill="#4c4e725d"/><circle cx="62.5" cy="5.5" r=".07" fill="#4c4e7278"/><circle cx="66.5" cy="5.5" r=".07" fill="#4c4e725b"/><circle cx="69.5" cy="5.5" r=".07" fill="#4c4e7250"/><circle cx="70.5" cy="5.5" r=".07" fill="#4c4e7286"/><circle cx="71.5" cy="5.5" r=".07" fill="#4c4e7223"/><circle cx="73.5" cy="5.5" r=".07" fill="#4c4e72a7"/><circle cx="76.5" cy="5.5" r=".07" fill="#4c4e72e9"/><circle cx="77.5" cy="5.5" r=".07" fill="#4c4e7209"/><circle cx="80.5" cy="5.5" r=".07" fill="#4c4e7247"/><circle cx="84.5" cy="5.5" r=".07" fill="#4c4e7208"/><circle cx="85.5" cy="5.5" r=".07" fill="#4c4e7231"/><circle cx="86.5" cy="5.5" r=".07" fill="#4c4e7290"/><circle cx="87.5" cy="5.5" r=".07" fill="#4c4e72e3"/><circle cx="88.5" cy="5.5" r=".07" fill="#4c4e7263"/><circle cx="90.5" cy="5.5" r=".07" fill="#4c4e7282"/><circle cx="91.5" cy="5.5" r=".07" fill="#4c4e7216"/><circle cx="92.5" cy="5.5" r=".07" fill="#4c4e7271"/><circle cx="93.5" cy="5.5" r=".07" fill="#4c4e720d"/><circle cx="94.5" cy="5.5" r=".07" fill="#4c4e72f5"/><circle cx="96.5" cy="5.5" r=".07" fill="#4c4e724d"/><circle cx="97.5" cy="5.5" r=".07" fill="#4c4e72ca"/><circle cx="98.5" cy="5.5" r=".07" fill="#4c4e7219"/><circle cx="99.5" cy="5.5" r=".07" fill="#4c4e7276"/><circle cx="6" cy="6.5" r=".07" fill="#4c4e7238"/><circle cx="11" cy="6.5" r=".07" fill="#4c4e7290"/><circle cx="14" cy="6.5" r=".07" fill="#4c4e72e0"/><circle cx="15" cy="6.5" r=".07" fill="#4c4e72e0"/><circle cx="16" cy="6.5" r=".07" fill="#4c4e72e5"/><circle cx="22" cy="6.5" r=".07" fill="#4c4e721d"/><circle cx="24" cy="6.5" r=".07" fill="#4c4e72c0"/><circle cx="26" cy="6.5" r=".07" fill="#4c4e728a"/><circle cx="32" cy="6.5" r=".07" fill="#4c4e726c"/><circle cx="34" cy="6.5" r=".07" fill="#4c4e7224"/><circle cx="35" cy="6.5" r=".07" fill="#4c4e7249"/><circle cx="38" cy="6.5" r=".07" fill="#4c4e7242"/><circle cx="42" cy="6.5" r=".07" fill="#4c4e728d"/><circle cx="44" cy="6.5" r=".07" fill="#4c4e7250"/><circle cx="45" cy="6.5" r=".07" fill="#4c4e72c0"/><circle cx="47" cy="6.5" r=".07" fill="#4c4e7250"/><circle cx="49" cy="6.5" r=".07" fill="#4c4e7213"/><circle cx="50" cy="6.5" r=".07" fill="#4c4e7205"/><circle cx="51" cy="6.5" r=".07" fill="#4c4e7261"/><circle cx="53" cy="6.5" r=".07" fill="#4c4e727f"/><circle cx="54" cy="6.5" r=".07" fill="#4c4e7201"/><circle cx="56" cy="6.5" r=".07" fill="#4c4e7256"/><circle cx="59" cy="6.5" r=".07" fill="#4c4e7211"/><circle cx="60" cy="6.5" r=".07" fill="#4c4e72e5"/><circle cx="63" cy="6.5" r=".07" fill="#4c4e7269"/><circle cx="64" cy="6.5" r=".07" fill="#4c4e729d"/><circle cx="71" cy="6.5" r=".07" fill="#4c4e7259"/><circle cx="73" cy="6.5" r=".07" fill="#4c4e72d4"/><circle cx="74" cy="6.5" r=".07" fill="#4c4e72a6"/><circle cx="76" cy="6.5" r=".07" fill="#4c4e724b"/><circle cx="78" cy="6.5" r=".07" fill="#4c4e722c"/><circle cx="79" cy="6.5" r=".07" fill="#4c4e7261"/><circle cx="80" cy="6.5" r=".07" fill="#4c4e728b"/><circle cx="84" cy="6.5" r=".07" fill="#4c4e724f"/><circle cx="87" cy="6.5" r=".07" fill="#4c4e72e7"/><circle cx="90" cy="6.5" r=".07" fill="#4c4e721b"/><circle cx="92" cy="6.5" r=".07" fill="#4c4e720d"/><circle cx="98" cy="6.5" r=".07" fill="#4c4e721f"/><circle cx="99" cy="6.5" r=".07" fill="#4c4e72a5"/><circle cx="1.5" cy="7.5" r=".07" fill="#4c4e7257"/><circle cx="2.5" cy="7.5" r=".07" fill="#4c4e7231"/><circle cx="6.5" cy="7.5" r=".07" fill="#4c4e72f6"/><circle cx="9.5" cy="7.5" r=".07" fill="#4c4e72cc"/><circle cx="10.5" cy="7.5" r=".07" fill="#4c4e728d"/><circle cx="11.5" cy="7.5" r=".07" fill="#4c4e7286"/><circle cx="12.5" cy="7.5" r=".07" fill="#4c4e7270"/><circle cx="15.5" cy="7.5" r=".07" fill="#4c4e7295"/><circle cx="16.5" cy="7.5" r=".07" fill="#4c4e722d"/><circle cx="17.5" cy="7.5" r=".07" fill="#4c4e72d1"/><circle cx="20.5" cy="7.5" r=".07" fill="#4c4e7251"/><circle cx="22.5" cy="7.5" r=".07" fill="#4c4e72fb"/><circle cx="26.5" cy="7.5" r=".07" fill="#4c4e7216"/><circle cx="28.5" cy="7.5" r=".07" fill="#4c4e723a"/><circle cx="31.5" cy="7.5" r=".07" fill="#4c4e7232"/><circle cx="32.5" cy="7.5" r=".07" fill="#4c4e72f1"/><circle cx="34.5" cy="7.5" r=".07" fill="#4c4e721f"/><circle cx="35.5" cy="7.5" r=".07" fill="#4c4e724d"/><circle cx="36.5" cy="7.5" r=".07" fill="#4c4e725a"/><circle cx="37.5" cy="7.5" r=".07" fill="#4c4e727b"/><circle cx="38.5" cy="7.5" r=".07" fill="#4c4e7276"/><circle cx="39.5" cy="7.5" r=".07" fill="#4c4e728b"/><circle cx="40.5" cy="7.5" r=".07" fill="#4c4e728e"/><circle cx="42.5" cy="7.5" r=".07" fill="#4c4e727f"/><circle cx="43.5" cy="7.5" r=".07" fill="#4c4e723c"/><circle cx="44.5" cy="7.5" r=".07" fill="#4c4e7233"/><circle cx="46.5" cy="7.5" r=".07" fill="#4c4e722c"/><circle cx="47.5" cy="7.5" r=".07" fill="#4c4e72f4"/><circle cx="48.5" cy="7.5" r=".07" fill="#4c4e723b"/><circle cx="49.5" cy="7.5" r=".07" fill="#4c4e7269"/><circle cx="53.5" cy="7.5" r=".07" fill="#4c4e72a2"/><circle cx="54.5" cy="7.5" r=".07" fill="#4c4e7259"/><circle cx="55.5" cy="7.5" r=".07" fill="#4c4e720a"/><circle cx="56.5" cy="7.5" r=".07" fill="#4c4e724e"/><circle cx="57.5" cy="7.5" r=".07" fill="#4c4e7255"/><circle cx="59.5" cy="7.5" r=".07" fill="#4c4e7249"/><circle cx="62.5" cy="7.5" r=".07" fill="#4c4e721a"/><circle cx="65.5" cy="7.5" r=".07" fill="#4c4e7271"/><circle cx="66.5" cy="7.5" r=".07" fill="#4c4e72c0"/><circle cx="67.5" cy="7.5" r=".07" fill="#4c4e725f"/><circle cx="68.5" cy="7.5" r=".07" fill="#4c4e725f"/><circle cx="69.5" cy="7.5" r=".07" fill="#4c4e7269"/><circle cx="72.5" cy="7.5" r=".07" fill="#4c4e724a"/><circle cx="73.5" cy="7.5" r=".07" fill="#4c4e726b"/><circle cx="75.5" cy="7.5" r=".07" fill="#4c4e72cf"/><circle cx="76.5" cy="7.5" r=".07" fill="#4c4e72ea"/><circle cx="77.5" cy="7.5" r=".07" fill="#4c4e72c2"/><circle cx="78.5" cy="7.5" r=".07" fill="#4c4e7257"/><circle cx="80.5" cy="7.5" r=".07" fill="#4c4e7273"/><circle cx="81.5" cy="7.5" r=".07" fill="#4c4e7264"/><circle cx="82.5" cy="7.5" r=".07" fill="#4c4e72c3"/><circle cx="83.5" cy="7.5" r=".07" fill="#4c4e72c1"/><circle cx="87.5" cy="7.5" r=".07" fill="#4c4e729c"/><circle cx="89.5" cy="7.5" r=".07" fill="#4c4e72a5"/><circle cx="91.5" cy="7.5" r=".07" fill="#4c4e725b"/><circle cx="93.5" cy="7.5" r=".07" fill="#4c4e7244"/><circle cx="94.5" cy="7.5" r=".07" fill="#4c4e7254"/><circle cx="96.5" cy="7.5" r=".07" fill="#4c4e72d0"/><circle cx="97.5" cy="7.5" r=".07" fill="#4c4e7272"/><circle cx="98.5" cy="7.5" r=".07" fill="#4c4e726c"/><circle cy="8.5" r=".07" fill="#4c4e722b"/><circle cx="1" cy="8.5" r=".07" fill="#4c4e728a"/><circle cx="8" cy="8.5" r=".07" fill="#4c4e727f"/><circle cx="9" cy="8.5" r=".07" fill="#4c4e7253"/><circle cx="10" cy="8.5" r=".07" fill="#4c4e7216"/><circle cx="11" cy="8.5" r=".07" fill="#4c4e72c1"/><circle cx="12" cy="8.5" r=".07" fill="#4c4e72f9"/><circle cx="13" cy="8.5" r=".07" fill="#4c4e72f4"/><circle cx="16" cy="8.5" r=".07" fill="#4c4e72e5"/><circle cx="17" cy="8.5" r=".07" fill="#4c4e72f5"/><circle cx="18" cy="8.5" r=".07" fill="#4c4e7229"/><circle cx="22" cy="8.5" r=".07" fill="#4c4e7222"/><circle cx="26" cy="8.5" r=".07" fill="#4c4e7237"/><circle cx="27" cy="8.5" r=".07" fill="#4c4e72d3"/><circle cx="31" cy="8.5" r=".07" fill="#4c4e72e3"/><circle cx="35" cy="8.5" r=".07" fill="#4c4e7207"/><circle cx="40" cy="8.5" r=".07" fill="#4c4e7284"/><circle cx="42" cy="8.5" r=".07" fill="#4c4e72a9"/><circle cx="43" cy="8.5" r=".07" fill="#4c4e723f"/><circle cx="48" cy="8.5" r=".07" fill="#4c4e7287"/><circle cx="50" cy="8.5" r=".07" fill="#4c4e72bb"/><circle cx="51" cy="8.5" r=".07" fill="#4c4e7233"/><circle cx="52" cy="8.5" r=".07" fill="#4c4e7284"/><circle cx="53" cy="8.5" r=".07" fill="#4c4e7247"/><circle cx="54" cy="8.5" r=".07" fill="#4c4e7278"/><circle cx="57" cy="8.5" r=".07" fill="#4c4e7239"/><circle cx="58" cy="8.5" r=".07" fill="#4c4e72e2"/><circle cx="59" cy="8.5" r=".07" fill="#4c4e7262"/><circle cx="60" cy="8.5" r=".07" fill="#4c4e7238"/><circle cx="61" cy="8.5" r=".07" fill="#4c4e7242"/><circle cx="62" cy="8.5" r=".07" fill="#4c4e723d"/><circle cx="65" cy="8.5" r=".07" fill="#4c4e7252"/><circle cx="67" cy="8.5" r=".07" fill="#4c4e721f"/><circle cx="69" cy="8.5" r=".07" fill="#4c4e720d"/><circle cx="72" cy="8.5" r=".07" fill="#4c4e7288"/><circle cx="74" cy="8.5" r=".07" fill="#4c4e721c"/><circle cx="75" cy="8.5" r=".07" fill="#4c4e728c"/><circle cx="78" cy="8.5" r=".07" fill="#4c4e720e"/><circle cx="80" cy="8.5" r=".07" fill="#4c4e7262"/><circle cx="82" cy="8.5" r=".07" fill="#4c4e7230"/><circle cx="86" cy="8.5" r=".07" fill="#4c4e72d5"/><circle cx="88" cy="8.5" r=".07" fill="#4c4e72cd"/><circle cx="89" cy="8.5" r=".07" fill="#4c4e72a0"/><circle cx="90" cy="8.5" r=".07" fill="#4c4e7270"/><circle cx="91" cy="8.5" r=".07" fill="#4c4e726a"/><circle cx="92" cy="8.5" r=".07" fill="#4c4e721a"/><circle cx="93" cy="8.5" r=".07" fill="#4c4e729b"/><circle cx="95" cy="8.5" r=".07" fill="#4c4e723a"/><circle cx="96" cy="8.5" r=".07" fill="#4c4e72b9"/><circle cx="99" cy="8.5" r=".07" fill="#4c4e72a9"/><circle cx="100" cy="8.5" r=".07" fill="#4c4e7281"/><circle cx=".5" cy="9.5" r=".07" fill="#4c4e729a"/><circle cx="1.5" cy="9.5" r=".07" fill="#4c4e7281"/><circle cx="2.5" cy="9.5" r=".07" fill="#4c4e7275"/><circle cx="10.5" cy="9.5" r=".07" fill="#4c4e72ed"/><circle cx="11.5" cy="9.5" r=".07" fill="#4c4e72a7"/><circle cx="15.5" cy="9.5" r=".07" fill="#4c4e72a6"/><circle cx="18.5" cy="9.5" r=".07" fill="#4c4e72f7"/><circle cx="19.5" cy="9.5" r=".07" fill="#4c4e72d6"/><circle cx="21.5" cy="9.5" r=".07" fill="#4c4e7257"/><circle cx="23.5" cy="9.5" r=".07" fill="#4c4e72b6"/><circle cx="24.5" cy="9.5" r=".07" fill="#4c4e7202"/><circle cx="25.5" cy="9.5" r=".07" fill="#4c4e7214"/><circle cx="26.5" cy="9.5" r=".07" fill="#4c4e7296"/><circle cx="30.5" cy="9.5" r=".07" fill="#4c4e72e8"/><circle cx="31.5" cy="9.5" r=".07" fill="#4c4e72bc"/><circle cx="32.5" cy="9.5" r=".07" fill="#4c4e72a4"/><circle cx="35.5" cy="9.5" r=".07" fill="#4c4e727c"/><circle cx="37.5" cy="9.5" r=".07" fill="#4c4e7235"/><circle cx="39.5" cy="9.5" r=".07" fill="#4c4e72d3"/><circle cx="40.5" cy="9.5" r=".07" fill="#4c4e7294"/><circle cx="41.5" cy="9.5" r=".07" fill="#4c4e72d7"/><circle cx="43.5" cy="9.5" r=".07" fill="#4c4e72ae"/><circle cx="45.5" cy="9.5" r=".07" fill="#4c4e724d"/><circle cx="46.5" cy="9.5" r=".07" fill="#4c4e72a3"/><circle cx="49.5" cy="9.5" r=".07" fill="#4c4e728f"/><circle cx="50.5" cy="9.5" r=".07" fill="#4c4e727b"/><circle cx="52.5" cy="9.5" r=".07" fill="#4c4e72c6"/><circle cx="53.5" cy="9.5" r=".07" fill="#4c4e720b"/><circle cx="56.5" cy="9.5" r=".07" fill="#4c4e72fc"/><circle cx="57.5" cy="9.5" r=".07" fill="#4c4e72e0"/><circle cx="58.5" cy="9.5" r=".07" fill="#4c4e7283"/><circle cx="60.5" cy="9.5" r=".07" fill="#4c4e72e7"/><circle cx="61.5" cy="9.5" r=".07" fill="#4c4e72ed"/><circle cx="63.5" cy="9.5" r=".07" fill="#4c4e721d"/><circle cx="65.5" cy="9.5" r=".07" fill="#4c4e725f"/><circle cx="66.5" cy="9.5" r=".07" fill="#4c4e721a"/><circle cx="70.5" cy="9.5" r=".07" fill="#4c4e722c"/><circle cx="75.5" cy="9.5" r=".07" fill="#4c4e726e"/><circle cx="76.5" cy="9.5" r=".07" fill="#4c4e7275"/><circle cx="77.5" cy="9.5" r=".07" fill="#4c4e72b8"/><circle cx="79.5" cy="9.5" r=".07" fill="#4c4e72d2"/><circle cx="81.5" cy="9.5" r=".07" fill="#4c4e72e1"/><circle cx="83.5" cy="9.5" r=".07" fill="#4c4e72ec"/><circle cx="85.5" cy="9.5" r=".07" fill="#4c4e7297"/><circle cx="86.5" cy="9.5" r=".07" fill="#4c4e72a4"/><circle cx="87.5" cy="9.5" r=".07" fill="#4c4e72f0"/><circle cx="89.5" cy="9.5" r=".07" fill="#4c4e728c"/><circle cx="91.5" cy="9.5" r=".07" fill="#4c4e72b0"/><circle cx="94.5" cy="9.5" r=".07" fill="#4c4e72a1"/><circle cx="3" cy="10.5" r=".07" fill="#4c4e7255"/><circle cx="5" cy="10.5" r=".07" fill="#4c4e72e4"/><circle cx="6" cy="10.5" r=".07" fill="#4c4e72a2"/><circle cx="7" cy="10.5" r=".07" fill="#4c4e7281"/><circle cx="8" cy="10.5" r=".07" fill="#4c4e72f6"/><circle cx="10" cy="10.5" r=".07" fill="#4c4e72c7"/><circle cx="12" cy="10.5" r=".07" fill="#4c4e72c2"/><circle cx="13" cy="10.5" r=".07" fill="#4c4e72b1"/><circle cx="18" cy="10.5" r=".07" fill="#4c4e720a"/><circle cx="20" cy="10.5" r=".07" fill="#4c4e72c8"/><circle cx="21" cy="10.5" r=".07" fill="#4c4e7200"/><circle cx="24" cy="10.5" r=".07" fill="#4c4e726f"/><circle cx="25" cy="10.5" r=".07" fill="#4c4e72e6"/><circle cx="28" cy="10.5" r=".07" fill="#4c4e7224"/><circle cx="29" cy="10.5" r=".07" fill="#4c4e7282"/><circle cx="31" cy="10.5" r=".07" fill="#4c4e72c9"/><circle cx="33" cy="10.5" r=".07" fill="#4c4e72a2"/><circle cx="38" cy="10.5" r=".07" fill="#4c4e7278"/><circle cx="41" cy="10.5" r=".07" fill="#4c4e7277"/><circle cx="42" cy="10.5" r=".07" fill="#4c4e72c2"/><circle cx="43" cy="10.5" r=".07" fill="#4c4e725a"/><circle cx="44" cy="10.5" r=".07" fill="#4c4e72dd"/><circle cx="47" cy="10.5" r=".07" fill="#4c4e72cb"/><circle cx="51" cy="10.5" r=".07" fill="#4c4e7261"/><circle cx="52" cy="10.5" r=".07" fill="#4c4e7205"/><circle cx="53" cy="10.5" r=".07" fill="#4c4e7297"/><circle cx="55" cy="10.5" r=".07" fill="#4c4e7277"/><circle cx="56" cy="10.5" r=".07" fill="#4c4e7270"/><circle cx="58" cy="10.5" r=".07" fill="#4c4e726d"/><circle cx="59" cy="10.5" r=".07" fill="#4c4e72d9"/><circle cx="60" cy="10.5" r=".07" fill="#4c4e7299"/><circle cx="61" cy="10.5" r=".07" fill="#4c4e72b4"/><circle cx="72" cy="10.5" r=".07" fill="#4c4e72e1"/><circle cx="73" cy="10.5" r=".07" fill="#4c4e722e"/><circle cx="76" cy="10.5" r=".07" fill="#4c4e720b"/><circle cx="77" cy="10.5" r=".07" fill="#4c4e72ae"/><circle cx="78" cy="10.5" r=".07" fill="#4c4e7232"/><circle cx="79" cy="10.5" r=".07" fill="#4c4e72e6"/><circle cx="80" cy="10.5" r=".07" fill="#4c4e7242"/><circle cx="81" cy="10.5" r=".07" fill="#4c4e7233"/><circle cx="83" cy="10.5" r=".07" fill="#4c4e72ad"/><circle cx="86" cy="10.5" r=".07" fill="#4c4e72c1"/><circle cx="87" cy="10.5" r=".07" fill="#4c4e72e8"/><circle cx="89" cy="10.5" r=".07" fill="#4c4e72a3"/><circle cx="93" cy="10.5" r=".07" fill="#4c4e7248"/><circle cx="94" cy="10.5" r=".07" fill="#4c4e7252"/><circle cx="96" cy="10.5" r=".07" fill="#4c4e7277"/><circle cx=".5" cy="11.5" r=".07" fill="#4c4e7257"/><circle cx="3.5" cy="11.5" r=".07" fill="#4c4e725d"/><circle cx="4.5" cy="11.5" r=".07" fill="#4c4e725a"/><circle cx="6.5" cy="11.5" r=".07" fill="#4c4e7247"/><circle cx="7.5" cy="11.5" r=".07" fill="#4c4e7208"/><circle cx="10.5" cy="11.5" r=".07" fill="#4c4e726b"/><circle cx="14.5" cy="11.5" r=".07" fill="#4c4e7252"/><circle cx="17.5" cy="11.5" r=".07" fill="#4c4e725f"/><circle cx="19.5" cy="11.5" r=".07" fill="#4c4e7257"/><circle cx="20.5" cy="11.5" r=".07" fill="#4c4e7262"/><circle cx="21.5" cy="11.5" r=".07" fill="#4c4e72e2"/><circle cx="23.5" cy="11.5" r=".07" fill="#4c4e7263"/><circle cx="25.5" cy="11.5" r=".07" fill="#4c4e72f3"/><circle cx="26.5" cy="11.5" r=".07" fill="#4c4e72a7"/><circle cx="30.5" cy="11.5" r=".07" fill="#4c4e729c"/><circle cx="35.5" cy="11.5" r=".07" fill="#4c4e7224"/><circle cx="36.5" cy="11.5" r=".07" fill="#4c4e7204"/><circle cx="37.5" cy="11.5" r=".07" fill="#4c4e72b7"/><circle cx="39.5" cy="11.5" r=".07" fill="#4c4e7223"/><circle cx="42.5" cy="11.5" r=".07" fill="#4c4e721c"/><circle cx="44.5" cy="11.5" r=".07" fill="#4c4e7283"/><circle cx="46.5" cy="11.5" r=".07" fill="#4c4e72d4"/><circle cx="50.5" cy="11.5" r=".07" fill="#4c4e7278"/><circle cx="51.5" cy="11.5" r=".07" fill="#4c4e7266"/><circle cx="53.5" cy="11.5" r=".07" fill="#4c4e722c"/><circle cx="55.5" cy="11.5" r=".07" fill="#4c4e72be"/><circle cx="59.5" cy="11.5" r=".07" fill="#4c4e7240"/><circle cx="60.5" cy="11.5" r=".07" fill="#4c4e7271"/><circle cx="61.5" cy="11.5" r=".07" fill="#4c4e726f"/><circle cx="66.5" cy="11.5" r=".07" fill="#4c4e72c0"/><circle cx="70.5" cy="11.5" r=".07" fill="#4c4e7215"/><circle cx="73.5" cy="11.5" r=".07" fill="#4c4e7271"/><circle cx="74.5" cy="11.5" r=".07" fill="#4c4e7290"/><circle cx="75.5" cy="11.5" r=".07" fill="#4c4e7229"/><circle cx="77.5" cy="11.5" r=".07" fill="#4c4e72eb"/><circle cx="78.5" cy="11.5" r=".07" fill="#4c4e725b"/><circle cx="79.5" cy="11.5" r=".07" fill="#4c4e7250"/><circle cx="82.5" cy="11.5" r=".07" fill="#4c4e7246"/><circle cx="83.5" cy="11.5" r=".07" fill="#4c4e72f6"/><circle cx="85.5" cy="11.5" r=".07" fill="#4c4e727c"/><circle cx="87.5" cy="11.5" r=".07" fill="#4c4e724f"/><circle cx="88.5" cy="11.5" r=".07" fill="#4c4e7275"/><circle cx="89.5" cy="11.5" r=".07" fill="#4c4e727f"/><circle cx="91.5" cy="11.5" r=".07" fill="#4c4e72e0"/><circle cx="92.5" cy="11.5" r=".07" fill="#4c4e72f1"/><circle cx="95.5" cy="11.5" r=".07" fill="#4c4e72bc"/><circle cx="97.5" cy="11.5" r=".07" fill="#4c4e7237"/><circle cx="98.5" cy="11.5" r=".07" fill="#4c4e7252"/><circle cx="99.5" cy="11.5" r=".07" fill="#4c4e722d"/><circle cy="12.5" r=".07" fill="#4c4e72a7"/><circle cx="1" cy="12.5" r=".07" fill="#4c4e7228"/><circle cx="3" cy="12.5" r=".07" fill="#4c4e72bc"/><circle cx="8" cy="12.5" r=".07" fill="#4c4e726f"/><circle cx="10" cy="12.5" r=".07" fill="#4c4e72ed"/><circle cx="20" cy="12.5" r=".07" fill="#4c4e7213"/><circle cx="21" cy="12.5" r=".07" fill="#4c4e728f"/><circle cx="22" cy="12.5" r=".07" fill="#4c4e7202"/><circle cx="23" cy="12.5" r=".07" fill="#4c4e72d0"/><circle cx="24" cy="12.5" r=".07" fill="#4c4e72a9"/><circle cx="25" cy="12.5" r=".07" fill="#4c4e7228"/><circle cx="27" cy="12.5" r=".07" fill="#4c4e7210"/><circle cx="28" cy="12.5" r=".07" fill="#4c4e72c5"/><circle cx="29" cy="12.5" r=".07" fill="#4c4e729e"/><circle cx="33" cy="12.5" r=".07" fill="#4c4e7245"/><circle cx="34" cy="12.5" r=".07" fill="#4c4e7211"/><circle cx="36" cy="12.5" r=".07" fill="#4c4e7205"/><circle cx="37" cy="12.5" r=".07" fill="#4c4e72a6"/><circle cx="39" cy="12.5" r=".07" fill="#4c4e723a"/><circle cx="40" cy="12.5" r=".07" fill="#4c4e7230"/><circle cx="41" cy="12.5" r=".07" fill="#4c4e7239"/><circle cx="42" cy="12.5" r=".07" fill="#4c4e7270"/><circle cx="44" cy="12.5" r=".07" fill="#4c4e72ea"/><circle cx="46" cy="12.5" r=".07" fill="#4c4e728d"/><circle cx="47" cy="12.5" r=".07" fill="#4c4e7201"/><circle cx="49" cy="12.5" r=".07" fill="#4c4e7285"/><circle cx="53" cy="12.5" r=".07" fill="#4c4e72df"/><circle cx="55" cy="12.5" r=".07" fill="#4c4e72e8"/><circle cx="57" cy="12.5" r=".07" fill="#4c4e72b8"/><circle cx="58" cy="12.5" r=".07" fill="#4c4e72f4"/><circle cx="64" cy="12.5" r=".07" fill="#4c4e7289"/><circle cx="65" cy="12.5" r=".07" fill="#4c4e72fe"/><circle cx="67" cy="12.5" r=".07" fill="#4c4e72c6"/><circle cx="72" cy="12.5" r=".07" fill="#4c4e725e"/><circle cx="73" cy="12.5" r=".07" fill="#4c4e72c2"/><circle cx="75" cy="12.5" r=".07" fill="#4c4e72e4"/><circle cx="78" cy="12.5" r=".07" fill="#4c4e7292"/><circle cx="79" cy="12.5" r=".07" fill="#4c4e7241"/><circle cx="83" cy="12.5" r=".07" fill="#4c4e7265"/><circle cx="85" cy="12.5" r=".07" fill="#4c4e7203"/><circle cx="86" cy="12.5" r=".07" fill="#4c4e7217"/><circle cx="89" cy="12.5" r=".07" fill="#4c4e7281"/><circle cx="97" cy="12.5" r=".07" fill="#4c4e7281"/><circle cx="98" cy="12.5" r=".07" fill="#4c4e725d"/><circle cx="99" cy="12.5" r=".07" fill="#4c4e7254"/><circle cx="100" cy="12.5" r=".07" fill="#4c4e72f4"/></g><defs><radialGradient id="a"><stop offset="0" stop-color="#fff"/><stop offset="1" stop-color="#fff"/></radialGradient></defs></svg>